<svg width="30" height="30" viewBox="0 0 30 30" fill="none" xmlns="http://www.w3.org/2000/svg">
<path d="M13.072 7.32L8.56133 2.11333C8.04133 1.51333 7.088 1.516 6.484 2.12133L2.77467 5.83733C1.67067 6.94267 1.35467 8.584 1.99333 9.9C5.80882 17.8 12.1801 24.1801 20.0747 28.0067C21.3893 28.6453 23.0293 28.3293 24.1333 27.224L27.8773 23.4733C28.484 22.8667 28.4853 21.908 27.88 21.388L22.6533 16.9013C22.1067 16.432 21.2573 16.4933 20.7093 17.0427L18.8907 18.864C18.7976 18.9616 18.675 19.0259 18.5418 19.0471C18.4086 19.0683 18.2721 19.0452 18.1533 18.9813C15.1806 17.2695 12.7147 14.8003 11.0067 11.8253C10.9427 11.7063 10.9195 11.5696 10.9407 11.4362C10.9619 11.3028 11.0263 11.18 11.124 11.0867L12.9373 9.272C13.4867 8.72 13.5467 7.86667 13.072 7.31867V7.32Z" stroke="black" stroke-width="2" stroke-linecap="round" stroke-linejoin="round"/>
</svg>
